<?xml version="1.0" encoding="UTF-8"?>
<svg id="Layer_1" data-name="Layer 1" xmlns="http://www.w3.org/2000/svg" viewBox="0 0 1366 768">
  <defs>
    <style>
      .cls-1 {
        fill: none;
      }
    </style>
  </defs>
  <g>
    <path d="M401.27,440.96c2.14.55,3.73,1.47,4.74,2.73,1.02,1.27,1.52,2.63,1.52,4.06,0,1.33-.45,2.57-1.35,3.73-.91,1.16-2.2,2.07-3.9,2.74v24.86c0,2.43-.82,4.48-2.46,6.13-1.64,1.66-3.19,3.21-4.66,4.64-3.62,3.54-7.88,6.11-12.79,7.71-4.91,1.6-9.91,2.4-14.99,2.4-8.25,0-15.48-1.69-21.69-5.05-6.21-3.37-11.38-7.62-15.5-12.76-4.12-5.14-7.23-10.75-9.32-16.82-2.09-6.08-3.13-11.88-3.13-17.4,0-3.2.39-6.68,1.19-10.44.79-3.76,2-7.46,3.64-11.11,1.64-3.65,3.7-7.07,6.18-10.28,2.48-3.2,5.42-5.86,8.81-7.96,6.1-3.87,12.34-7.04,18.72-9.53,6.38-2.49,12.9-3.73,19.57-3.73,1.92,0,4.24.19,6.95.58,2.71.39,5.34,1,7.88,1.82,2.54.83,4.71,1.96,6.52,3.4,1.81,1.44,2.71,3.21,2.71,5.3,0,1.77-.62,3.26-1.86,4.48-1.24,1.22-2.82,1.82-4.74,1.82-1.02,0-2.2-.22-3.56-.66-1.36-.44-2.8-.91-4.32-1.41s-3.11-.97-4.74-1.41c-1.64-.44-3.25-.66-4.83-.66-1.13,0-2.2.06-3.22.17-1.02.11-2.03.33-3.05.66-4.4,1.33-8.87,2.9-13.38,4.72-4.52,1.82-8.61,4.23-12.28,7.21-3.67,2.98-6.64,6.66-8.9,11.02-2.26,4.37-3.39,9.81-3.39,16.33,0,5.3.96,10.3,2.88,15,1.92,4.7,4.46,8.76,7.62,12.18,3.16,3.43,6.83,6.13,11.01,8.12,4.18,1.99,8.53,2.98,13.05,2.98,3.95,0,7.85-.77,11.69-2.32,3.84-1.55,7.34-3.87,10.5-6.96v-22.54c-4.29.11-8.56.17-12.79.17h-12.79c-2.49-.33-4.32-1.16-5.51-2.49s-1.78-2.76-1.78-4.31.65-3.07,1.95-4.56c1.3-1.49,3.25-2.24,5.85-2.24,1.13,0,3.53-.03,7.2-.08,3.67-.05,7.6-.08,11.77-.08s8.1-.03,11.78-.08c3.67-.05,6.07-.08,7.2-.08Z"/>
    <path d="M435.92,497.56c-1.41,1.27-2.97,1.91-4.66,1.91-1.58,0-3.05-.58-4.41-1.74s-2.2-2.96-2.54-5.39v-79.06c-1.81-.22-3.25-.91-4.32-2.07-1.07-1.16-1.61-2.57-1.61-4.23,0-.99.25-2.04.76-3.15.51-1.1,1.33-2.1,2.46-2.98,4.86-2.98,10.28-5.39,16.27-7.21,5.99-1.82,12.03-2.73,18.13-2.73,4.97,0,9.74.66,14.32,1.99,4.57,1.33,8.78,3.48,12.62,6.46,4.52,3.54,7.79,7.4,9.83,11.6,2.03,4.2,3.05,8.51,3.05,12.93,0,3.54-.59,7.02-1.78,10.44-1.19,3.43-2.85,6.66-5,9.7-2.15,3.04-4.72,5.8-7.71,8.29-2.99,2.49-6.35,4.56-10.08,6.22,4.29,4.75,8.92,9.78,13.89,15.08,4.97,5.3,9.6,10.28,13.89,14.92,1.24,1.55,1.86,3.26,1.86,5.14s-.62,3.4-1.86,4.56c-1.24,1.16-2.77,1.74-4.57,1.74-.91,0-1.89-.19-2.97-.58-1.07-.39-2.06-1.08-2.96-2.07-.68-.77-1.86-2.07-3.56-3.9s-3.62-3.87-5.76-6.13c-2.15-2.26-4.41-4.7-6.78-7.29-2.37-2.59-4.6-5.03-6.69-7.29-2.09-2.26-3.98-4.28-5.68-6.05-1.69-1.77-2.88-3.04-3.56-3.81-3.05.55-6.1.94-9.15,1.16-3.05.22-6.1.39-9.15.5v27.35c-.11,2.54-.88,4.45-2.29,5.72ZM473.96,409.63c-2.71-1.88-5.68-3.2-8.9-3.98-3.22-.77-6.52-1.16-9.91-1.16-2.94,0-5.82.28-8.64.83-2.82.55-5.59,1.33-8.3,2.32v43.26c4.29-.22,8.58-.55,12.88-.99,4.29-.44,8.53-1.43,12.71-2.98,2.48-.88,4.83-2.16,7.03-3.81s4.15-3.54,5.85-5.63c1.69-2.1,3.02-4.34,3.98-6.71.96-2.38,1.44-4.72,1.44-7.04,0-2.54-.62-5.03-1.86-7.46-1.24-2.43-3.33-4.64-6.27-6.63Z"/>
    <path d="M601.87,491.18c-.11,2.1-.68,3.81-1.69,5.14-1.02,1.33-2.26,2.13-3.73,2.4-1.47.27-2.94.03-4.41-.75-1.47-.77-2.71-2.1-3.73-3.98-.68-5.19-1.64-10.3-2.88-15.33-1.24-5.03-2.71-10.03-4.41-15l-44.9.33c-.23,0-.48-.03-.76-.08-.28-.05-.54-.08-.76-.08-2.82,9.39-5.37,19.12-7.62,29.17-.91,2.32-2.2,3.87-3.9,4.64-1.69.77-3.3.94-4.83.5-1.52-.44-2.77-1.44-3.73-2.98-.96-1.55-1.21-3.53-.76-5.97,3.73-16.02,8.22-31.68,13.47-46.99,5.25-15.3,11.83-30.25,19.74-44.83.68-2.1,2.26-3.42,4.74-3.98,1.24-.44,2.43-.52,3.56-.25,1.13.28,2.09.8,2.88,1.58.11,0,.17.03.17.08s.06.08.17.08c5.87,5.53,10.79,11.77,14.74,18.73,3.95,6.96,7.57,14.03,10.84,21.22,1.24,2.54,2.4,5.08,3.47,7.62,1.07,2.54,2.12,5.08,3.13,7.62l8.98-.17c2.14.66,3.73,1.66,4.74,2.98s1.5,2.68,1.44,4.06c-.06,1.38-.65,2.71-1.78,3.98-1.13,1.27-2.77,2.13-4.91,2.57h-3.56c1.47,4.53,2.74,9.09,3.81,13.67,1.07,4.59,1.89,9.26,2.46,14.01ZM555.11,411.46c-3.16,6.3-6.07,12.71-8.73,19.23-2.66,6.52-5.11,13.09-7.37,19.72l36.94-.33c-1.47-3.32-2.97-6.57-4.49-9.78-1.52-3.2-3.08-6.41-4.66-9.61-1.81-3.2-3.62-6.46-5.42-9.78-1.81-3.31-3.9-6.46-6.27-9.45Z"/>
    <path d="M685.91,399.52c.56-2.21,1.47-3.87,2.71-4.97,1.24-1.1,2.65-1.66,4.24-1.66,1.47,0,2.85.5,4.15,1.49,1.3,1,2.23,2.54,2.8,4.64,0,15.8-.11,31.11-.34,45.91-.23,14.81-.79,30.11-1.69,45.91l.17.17h-.17c-.11.55-.17,1.02-.17,1.41v1.24c-.68,1.77-1.61,3.09-2.79,3.98-1.19.88-2.46,1.33-3.81,1.33-2.03,0-3.96-.89-5.76-2.65-.23-.44-.45-.83-.68-1.16-.23-.33-.45-.66-.68-.99h-.17v-.33c-4.07-6.74-8.25-13.18-12.54-19.31-4.29-6.13-8.7-12.15-13.22-18.07-4.52-5.91-9.12-11.77-13.81-17.57-4.69-5.8-9.52-11.74-14.49-17.82v33.56c0,5.58.03,11.41.08,17.49.06,6.08.08,12.65.08,19.72-.11,2.54-.88,4.45-2.29,5.72-1.41,1.27-2.96,1.91-4.66,1.91-1.58,0-3.05-.58-4.41-1.74s-2.2-2.96-2.54-5.39c0-14.92-.03-30.03-.08-45.33-.06-15.3-.08-30.42-.08-45.33.45-1.99,1.3-3.54,2.54-4.64,1.24-1.1,2.65-1.66,4.24-1.66s3.27.61,5.08,1.82c5.19,6.08,10.28,12.02,15.25,17.82,4.97,5.8,9.85,11.63,14.66,17.49,4.8,5.86,9.46,11.85,13.98,17.98,4.52,6.13,8.92,12.51,13.22,19.14.45-12.15.76-23.81.93-34.97.17-11.16.25-22.87.25-35.14Z"/>
    <path d="M786.54,399.52c.56-2.21,1.47-3.87,2.71-4.97,1.24-1.1,2.65-1.66,4.24-1.66,1.47,0,2.85.5,4.15,1.49,1.3,1,2.23,2.54,2.8,4.64,0,15.8-.11,31.11-.34,45.91-.23,14.81-.79,30.11-1.69,45.91l.17.17h-.17c-.11.55-.17,1.02-.17,1.41v1.24c-.68,1.77-1.61,3.09-2.79,3.98-1.19.88-2.46,1.33-3.81,1.33-2.03,0-3.96-.89-5.76-2.65-.23-.44-.45-.83-.68-1.16-.23-.33-.45-.66-.68-.99h-.17v-.33c-4.07-6.74-8.25-13.18-12.54-19.31-4.29-6.13-8.7-12.15-13.22-18.07-4.52-5.91-9.12-11.77-13.81-17.57-4.69-5.8-9.52-11.74-14.49-17.82v33.56c0,5.58.03,11.41.08,17.49.06,6.08.08,12.65.08,19.72-.11,2.54-.88,4.45-2.29,5.72-1.41,1.27-2.96,1.91-4.66,1.91-1.58,0-3.05-.58-4.41-1.74s-2.2-2.96-2.54-5.39c0-14.92-.03-30.03-.08-45.33-.06-15.3-.08-30.42-.08-45.33.45-1.99,1.3-3.54,2.54-4.64,1.24-1.1,2.65-1.66,4.24-1.66s3.27.61,5.08,1.82c5.19,6.08,10.28,12.02,15.25,17.82,4.97,5.8,9.85,11.63,14.66,17.49,4.8,5.86,9.46,11.85,13.98,17.98,4.52,6.13,8.92,12.51,13.22,19.14.45-12.15.76-23.81.93-34.97.17-11.16.25-22.87.25-35.14Z"/>
    <path d="M858.21,490.52c-.11,2.54-.88,4.45-2.29,5.72-1.41,1.27-2.96,1.91-4.66,1.91-1.58,0-3.05-.58-4.41-1.74s-2.2-2.95-2.54-5.39c0-6.74-.03-13.45-.08-20.14-.06-6.68-.08-13.45-.08-20.3-7-6.63-13.41-13.73-19.23-21.3-5.82-7.57-10.2-15.99-13.13-25.28,0-.22-.03-.47-.08-.75-.06-.27-.08-.52-.08-.75,0-2.32.65-4.12,1.95-5.39,1.3-1.27,2.79-1.91,4.49-1.91,2.6,0,4.8,1.27,6.61,3.81,2.48,7.85,6.04,14.95,10.67,21.3,4.63,6.36,9.83,12.35,15.59,17.98,5.42-6.3,10.87-12.62,16.35-18.98,5.48-6.35,10.19-13.18,14.15-20.47.9-1.55,1.95-2.65,3.13-3.32,1.19-.66,2.34-.99,3.47-.99,1.69,0,3.22.61,4.57,1.82,1.36,1.22,2.03,2.82,2.03,4.81,0,.99-.28,2.21-.85,3.65-4.63,8.29-10.11,16.11-16.43,23.45-6.33,7.35-12.54,14.67-18.64,21.96l-.68.66v19.81c0,6.58.06,13.18.17,19.81Z"/>
    <path d="M924.11,381.79c.9-1.55,1.92-2.65,3.05-3.31,1.13-.66,2.31-.99,3.56-.99,1.69,0,3.19.61,4.49,1.82,1.3,1.22,1.95,2.82,1.95,4.81,0,1.22-.23,2.43-.68,3.65-2.15,4.2-4.26,8.45-6.35,12.76-2.09,4.31-4.21,8.56-6.35,12.76-.91,1.22-1.92,2.07-3.05,2.57-1.13.5-2.2.75-3.22.75-1.69,0-3.19-.63-4.49-1.91-1.3-1.27-1.95-2.96-1.95-5.06,0-.44.03-.83.08-1.16.05-.33.14-.72.25-1.16,2.14-4.2,4.26-8.45,6.35-12.76,2.09-4.31,4.21-8.56,6.35-12.76Z"/>
    <path d="M956.81,484.05c-.68-1.55-1.02-2.98-1.02-4.31,0-1.88.59-3.4,1.78-4.56,1.19-1.16,2.68-1.74,4.49-1.74s3.56.61,5.25,1.82c1.92,2.21,4.15,4.06,6.69,5.55,2.54,1.49,5.25,2.65,8.13,3.48,2.88.83,5.82,1.41,8.81,1.74,2.99.33,5.9.5,8.73.5,1.92-.66,3.25-1.08,3.98-1.24.73-.17,1.33-.36,1.78-.58.45-.22.96-.55,1.53-.99.56-.44,1.64-1.21,3.22-2.32.56-.77,1.07-1.49,1.52-2.15.45-.66.96-1.38,1.53-2.15l1.52-4.48v-2.24c0-.72-.06-1.52-.17-2.4-.23-.77-.51-1.52-.85-2.24-.34-.72-.68-1.46-1.02-2.24-.68-.77-1.33-1.49-1.95-2.15-.62-.66-1.27-1.38-1.95-2.16-1.02-.55-2.03-1.16-3.05-1.82-1.02-.66-2.15-1.16-3.39-1.49-4.63-1.55-8.89-2.62-12.79-3.23-3.9-.61-7.57-1.38-11.01-2.32-3.45-.94-6.69-2.4-9.74-4.39-3.05-1.99-6.04-5.19-8.98-9.61-.57-.88-.91-1.55-1.02-1.99-.11-.44-.23-1.21-.34-2.32-.11-.88-.2-1.74-.25-2.57-.06-.83-.08-1.63-.08-2.4,0-1.99.2-3.75.59-5.3.39-1.55.99-3.04,1.78-4.48.79-1.43,1.81-2.9,3.05-4.39,1.24-1.49,2.71-3.12,4.41-4.89,1.92-1.99,4.12-3.62,6.61-4.89,2.48-1.27,5.08-2.26,7.79-2.98,2.71-.72,5.51-1.21,8.39-1.49,2.88-.27,5.68-.41,8.39-.41h2.46c.73,0,1.5.06,2.29.17,2.6.22,5.05.83,7.37,1.82,2.31.99,4.71,1.82,7.2,2.49,2.6,1.77,3.9,3.92,3.9,6.46,0,1.66-.65,3.12-1.95,4.39-1.3,1.27-3.13,1.91-5.51,1.91-.23,0-.48-.03-.76-.08-.28-.05-.54-.08-.76-.08-3.62-1.1-6.81-1.96-9.57-2.57-2.77-.61-5.45-.91-8.05-.91s-5.48.44-8.3,1.33c-2.83.89-6.1,2.38-9.83,4.48-.68.89-1.36,1.69-2.03,2.4-.68.72-1.36,1.47-2.03,2.24-.34.66-.65,1.33-.93,1.99-.28.66-.54,1.33-.76,1.99,0,.66.03,1.33.08,1.99.06.66.14,1.27.25,1.82.45.55.85,1.11,1.19,1.66.34.55.73,1.11,1.19,1.66l7.12,3.98c3.39.77,6.55,1.44,9.49,1.99,2.94.55,5.76,1.19,8.47,1.91,2.71.72,5.39,1.58,8.05,2.57,2.65.99,5.51,2.32,8.56,3.98,1.58.89,2.94,2.02,4.07,3.4,1.13,1.38,2.2,2.68,3.22,3.89,1.81,2.1,3.13,4.48,3.98,7.13.85,2.65,1.27,5.42,1.27,8.29,0,3.98-.79,7.85-2.37,11.6-1.58,3.76-3.84,6.85-6.78,9.28-1.02.89-2.06,1.69-3.13,2.4-1.08.72-2.12,1.41-3.13,2.07-2.37,1.55-5.03,2.71-7.96,3.48-2.94.77-6.04,1.16-9.32,1.16-3.73,0-7.48-.42-11.27-1.24-3.79-.83-7.43-1.99-10.93-3.48-3.5-1.49-6.72-3.23-9.66-5.22-2.94-1.99-5.42-4.14-7.45-6.46Z"/>
    <path d="M537.15,620.96c2.14.55,3.73,1.47,4.74,2.73,1.02,1.27,1.52,2.63,1.52,4.06,0,1.33-.45,2.57-1.35,3.73-.91,1.16-2.2,2.07-3.9,2.74v24.86c0,2.43-.82,4.48-2.46,6.13-1.64,1.66-3.19,3.21-4.66,4.64-3.62,3.54-7.88,6.11-12.79,7.71-4.91,1.6-9.91,2.4-14.99,2.4-8.25,0-15.48-1.69-21.69-5.05-6.21-3.37-11.38-7.62-15.5-12.76-4.12-5.14-7.23-10.75-9.32-16.82-2.09-6.08-3.13-11.88-3.13-17.4,0-3.2.39-6.68,1.19-10.44.79-3.76,2-7.46,3.64-11.11,1.64-3.65,3.7-7.07,6.18-10.28,2.48-3.2,5.42-5.86,8.81-7.96,6.1-3.87,12.34-7.04,18.72-9.53,6.38-2.49,12.9-3.73,19.57-3.73,1.92,0,4.24.19,6.95.58,2.71.39,5.34.99,7.88,1.82,2.54.83,4.71,1.96,6.52,3.4,1.81,1.44,2.71,3.21,2.71,5.3,0,1.77-.62,3.26-1.86,4.48-1.24,1.22-2.82,1.82-4.74,1.82-1.02,0-2.2-.22-3.56-.66-1.36-.44-2.8-.91-4.32-1.41s-3.11-.97-4.74-1.41c-1.64-.44-3.25-.66-4.83-.66-1.13,0-2.2.06-3.22.17-1.02.11-2.03.33-3.05.66-4.4,1.33-8.87,2.9-13.38,4.72-4.52,1.82-8.61,4.23-12.28,7.21-3.67,2.98-6.64,6.66-8.9,11.02-2.26,4.37-3.39,9.81-3.39,16.33,0,5.3.96,10.3,2.88,15,1.92,4.7,4.46,8.76,7.62,12.18,3.16,3.43,6.83,6.13,11.01,8.12,4.18,1.99,8.53,2.98,13.05,2.98,3.95,0,7.85-.77,11.69-2.32,3.84-1.55,7.34-3.87,10.5-6.96v-22.54c-4.29.11-8.56.17-12.79.17h-12.79c-2.49-.33-4.32-1.16-5.51-2.49s-1.78-2.76-1.78-4.31.65-3.07,1.95-4.56c1.3-1.49,3.25-2.24,5.85-2.24,1.13,0,3.53-.03,7.2-.08,3.67-.05,7.6-.08,11.77-.08s8.1-.03,11.78-.08c3.67-.05,6.07-.08,7.2-.08Z"/>
    <path d="M627.79,582.84c.56-2.21,1.47-3.87,2.71-4.97,1.24-1.1,2.65-1.66,4.24-1.66,1.47,0,2.85.5,4.15,1.49,1.3.99,2.23,2.54,2.8,4.64-.11,6.96-.31,14.28-.59,21.96-.28,7.68-.79,15.14-1.53,22.38-.74,7.24-1.75,14.03-3.05,20.39-1.3,6.36-3.08,11.74-5.34,16.16-1.24,2.65-3.02,4.95-5.34,6.88-2.32,1.93-4.91,3.54-7.79,4.81-2.88,1.27-5.9,2.21-9.06,2.82-3.16.61-6.21.91-9.15.91-3.5,0-6.92-.39-10.25-1.16-3.33-.77-6.44-1.96-9.32-3.56-2.88-1.6-5.42-3.59-7.62-5.97-2.2-2.38-3.87-5.16-5-8.37-1.92-5.3-3.25-11.13-3.98-17.49-.74-6.35-1.19-12.9-1.36-19.64-.17-6.74-.2-13.42-.08-20.05.11-6.63.17-12.87.17-18.73.56-2.21,1.47-3.87,2.71-4.97,1.24-1.1,2.65-1.66,4.24-1.66,1.47,0,2.85.5,4.15,1.49,1.3.99,2.23,2.54,2.8,4.64,0,3.65-.06,7.82-.17,12.51-.11,4.7-.2,9.56-.25,14.59-.06,5.03,0,10.06.17,15.08.17,5.03.51,9.75,1.02,14.17.51,4.42,1.3,8.34,2.37,11.77,1.07,3.43,2.51,6.02,4.32,7.79,2.37,2.43,5.05,4.06,8.05,4.89,2.99.83,5.9,1.24,8.73,1.24,3.39,0,6.72-.72,10-2.15,3.27-1.44,6.21-3.76,8.81-6.96,1.36-1.66,2.46-4.23,3.3-7.71.85-3.48,1.58-7.43,2.2-11.85.62-4.42,1.1-9.14,1.44-14.17.34-5.03.62-9.97.85-14.83.23-4.86.37-9.45.42-13.76.06-4.31.14-7.96.25-10.94Z"/>
    <path d="M700.31,662.56c2.48-.11,4.43.44,5.85,1.66,1.41,1.22,2.23,2.6,2.46,4.14.23,1.55-.2,3.07-1.27,4.56-1.08,1.49-2.85,2.51-5.34,3.07-5.87.22-11.72.31-17.54.25-5.82-.05-11.66-.08-17.54-.08-2.49-.33-4.32-1.19-5.51-2.57-1.19-1.38-1.75-2.87-1.69-4.47.06-1.6.73-3.07,2.03-4.39,1.3-1.33,3.19-2.04,5.68-2.16h5c1.64,0,3.3.06,5,.17v-72.43h-10.67c-2.49-.33-4.32-1.19-5.51-2.57-1.19-1.38-1.75-2.87-1.69-4.47.06-1.6.73-3.07,2.03-4.39,1.3-1.33,3.19-2.04,5.68-2.15h34.9c2.14.66,3.73,1.66,4.74,2.98,1.02,1.33,1.5,2.68,1.44,4.06-.06,1.38-.65,2.71-1.78,3.98-1.13,1.27-2.77,2.13-4.91,2.57h-10.33v72.6c1.47,0,2.94-.03,4.41-.08,1.47-.05,2.99-.14,4.57-.25Z"/>
    <path d="M740.12,679.8c-1.69-.22-3.11-.69-4.24-1.41-1.13-.72-1.98-1.57-2.54-2.57l-.51-.99c-.23-.55-.45-1.13-.68-1.74-.23-.61-.34-1.19-.34-1.74v-74.42c-1.02.33-1.84.64-2.46.91-.62.28-1.5.42-2.63.42-2.15,0-3.87-.61-5.17-1.82-1.3-1.21-1.95-2.65-1.95-4.31,0-2.43,1.44-4.53,4.32-6.3,2.88-1.77,6.29-3.23,10.25-4.39,3.95-1.16,8.1-2.02,12.45-2.57,4.35-.55,7.93-.83,10.76-.83,8.24,0,15.59,1.33,22.03,3.98,6.44,2.65,11.86,6.21,16.26,10.69,4.41,4.47,7.76,9.7,10.08,15.66,2.31,5.97,3.47,12.21,3.47,18.73s-1.24,13.12-3.73,19.47c-2.49,6.36-6.27,11.91-11.35,16.66-3.5,3.32-7.43,5.94-11.77,7.87-4.35,1.93-8.9,3.48-13.64,4.64-4.74,1.16-9.55,2.01-14.4,2.57-4.86.55-9.6,1.05-14.23,1.49ZM757.23,591.62c-1.92,0-3.84.11-5.76.33-1.92.22-3.84.5-5.76.83v72.93c3.28-.33,6.75-.72,10.42-1.16,3.67-.44,7.26-1.1,10.76-1.99,3.5-.88,6.78-2.04,9.83-3.48,3.05-1.43,5.59-3.26,7.62-5.47,3.61-3.87,6.35-8.23,8.22-13.09,1.86-4.86,2.8-9.83,2.8-14.92,0-4.42-.82-8.67-2.46-12.76-1.64-4.09-4.07-7.71-7.29-10.86-3.22-3.15-7.2-5.66-11.94-7.54-4.74-1.88-10.22-2.82-16.43-2.82Z"/>
    <path d="M883.12,659.41c2.14-.11,3.92.31,5.34,1.24,1.41.94,2.31,2.1,2.71,3.48.39,1.38.28,2.82-.34,4.31-.62,1.49-1.89,2.79-3.81,3.89-4.07,1.11-8.42,1.99-13.05,2.65-4.63.66-9.32,1.08-14.06,1.24-4.74.17-9.43.08-14.06-.25-4.63-.33-9.04-.99-13.22-1.99-1.81-.88-3.11-1.96-3.9-3.23-.79-1.27-1.13-2.51-1.02-3.73v-72.93c-1.47-.44-2.6-1.21-3.39-2.32-.79-1.1-1.19-2.32-1.19-3.65s.45-2.62,1.36-3.9c.9-1.27,2.31-2.24,4.24-2.9,4.41-1.33,8.89-2.24,13.47-2.74,4.57-.5,9.17-.83,13.81-.99,4.63-.17,9.26-.25,13.89-.25s9.2-.11,13.72-.33c2.48-.11,4.43.44,5.84,1.66,1.41,1.22,2.23,2.6,2.46,4.14.22,1.55-.2,3.07-1.27,4.56-1.08,1.49-2.85,2.51-5.34,3.07-6.78.33-13.98.44-21.6.33-7.62-.11-14.99.39-22.11,1.49v29.17c5.87.22,11.78.19,17.71-.08,5.93-.27,11.89-.69,17.87-1.24,2.48-.11,4.43.44,5.85,1.66,1.41,1.22,2.23,2.6,2.46,4.14.23,1.55-.2,3.07-1.27,4.56-1.08,1.49-2.85,2.51-5.34,3.07-6.21.55-12.45.99-18.72,1.33-6.27.33-12.45.39-18.55.17v26.85c6.78.99,13.81,1.24,21.09.75,7.29-.5,14.09-1.57,20.42-3.23Z"/>
  </g>
  <rect class="cls-1" x="1050.41" y="634.27" width="2.24" height="0"/>
  <rect class="cls-1" x="1082.18" y="178.31" width="33.9" height="65.46"/>
  <g>
    <path d="M622.16,52.2c-9.85,2.68-15.74,6.1-21.3,12.31l-4.28,4.82-5.67-1.18c-20.55-4.39-44.42,10.7-54.06,34.47-1.5,3.75-3.32,11.56-4.17,17.98-.86,6.21-3.21,21.19-5.25,33.29-4.28,24.94-6.53,47.31-5.46,54.06.54,4.17.21,5.14-3,9.42-6.85,9.1-8.14,23.23-2.78,33.5l2.68,5.14-3.43,5.78c-10.17,16.81-6.1,39.61,9.63,55.45,10.38,10.38,22.37,15.41,36.93,15.41l8.14.11,3.21,5.57c6.21,10.7,19.27,17.88,34.15,18.73,10.38.54,15.52-.86,20.98-5.78l4.07-3.64,9.31,2.68c14.24,4.07,30.19,5.57,44.32,3.96,6.53-.75,15.63-2.46,20.34-3.85l8.56-2.46,2.89,3c4.82,5.03,10.7,6.64,21.52,6.1,7.6-.43,10.81-1.18,16.59-3.75,8.46-3.96,15.84-10.38,18.52-16.38l1.93-4.28h8.24c14.56,0,26.76-5.03,36.93-15.41,10.06-10.17,15.52-22.69,15.52-35.54,0-6.64-3.1-17.13-6.32-21.62-1.61-2.25-1.93-3.53-1.07-4.07.64-.32,2.35-3.21,3.75-6.21,5.25-11.24,2.68-27.4-5.67-35.22-2.89-2.68-3.21-3.53-2.68-8.14.75-7.71-1.61-29.01-5.89-53.63-2.03-12.1-4.17-26.01-4.82-31.04-1.93-16.81-7.6-29.22-17.98-39.61-11.03-11.03-26.65-16.59-39.61-14.13l-6.53,1.18-4.39-4.82c-5.89-6.42-11.56-9.63-21.73-12.2-14.88-3.75-36.29-2.14-47.53,3.75-3.1,1.5-3.64,1.5-7.28-.43-11.03-5.46-32.86-7.06-47.31-3.32ZM662.73,65.58c8.67,3.85,12.63,3.85,21.41,0,5.99-2.68,8.67-3.1,19.48-3.53,10.49-.43,13.59-.11,19.8,1.71,8.67,2.68,15.63,8.14,17.45,13.7,1.71,5.14,4.5,5.99,11.67,3.53,12.31-4.28,23.76-1.5,34.36,8.35,7.39,6.74,13.38,17.66,14.99,27.08,8.88,51.7,10.92,66.58,11.13,80.71l.11,12.74-3.1.86c-3.85,1.07-8.46,5.46-11.99,11.45-1.82,3-3.32,4.5-4.5,4.28-3.1-.54-8.46-13.38-14.24-34.04-7.6-27.3-10.92-33.5-16.81-31.47-2.25.75-3.1,2.03-3.96,5.57-1.28,5.35-2.89,6.64-8.14,6.64-3.75,0-3.85-.11-5.14-5.57-2.46-11.13-11.24-20.87-24.94-27.72-15.63-7.92-32.75-8.46-43.03-1.5l-3.85,2.57-3.85-2.57c-20.87-14.13-64.33,5.03-67.76,29.97-.64,4.17-.75,4.28-5.03,4.6-5.14.32-7.92-1.71-7.92-5.78,0-2.89-3.43-6.85-5.89-6.85-4.92,0-8.67,7.81-15.52,32.65-6.32,23.01-10.92,33.72-14.24,33.72-.86,0-3.32-2.89-5.46-6.42-3.21-5.14-5.03-6.85-9.21-8.78l-5.35-2.46v-6.96c0-9.85,1.5-22.37,6.42-52.99,6.21-38.21,6.1-37.68,9.53-45.17,8.99-19.05,28.37-29.01,45.06-23.12,6.74,2.46,10.06,1.82,11.24-2.03,1.18-3.75,5.46-8.99,9.42-11.45,6.64-4.07,14.24-5.46,28.05-5.14,11.45.32,13.59.64,19.8,3.43ZM661.66,146.94c1.5.75,4.17,3.1,6.1,5.25,1.93,2.25,4.39,3.85,5.67,3.85s3.75-1.61,5.67-3.85c4.92-5.57,8.67-7.17,16.81-7.06,12.31.11,27.4,7.71,34.47,17.34,3,4.07,3.53,5.67,3.53,10.81,0,3.32.64,6.74,1.39,7.6,1.82,2.25,14.13,4.5,19.16,3.53,2.25-.43,5.25-1.39,6.85-2.14l2.89-1.5,1.82,6.64c8.67,32.01,13.06,42.6,19.16,47.31,8.24,6.21,16.7,4.28,22.05-5.14,4.07-7.28,5.46-8.46,9.31-7.92,3.64.43,7.39,5.46,8.35,11.35,1.39,8.56-3.75,18.2-11.67,21.94-5.57,2.68-14.24,2.25-19.37-.96-8.35-5.14-10.49-3.75-13.92,8.56-13.59,49.45-59.3,82.74-110.25,80.5-20.87-.96-38.11-6.64-55.45-18.2-22.37-14.99-37.68-36.07-44.96-62.19-3.53-12.42-5.25-13.49-13.7-8.67-12.2,6.96-27.72.32-30.72-13.17-1.82-8.03,2.46-19.48,7.39-19.48,1.93,0,5.89,4.71,9.74,11.56,2.35,4.39,8.78,6.42,14.66,4.6,9.21-2.68,14.77-14.13,23.66-47.95l2.35-8.78,3.1,1.5c4.6,2.46,11.67,3.1,18.3,1.71,7.71-1.61,9.85-3.96,8.88-9.53-2.78-16.59,31.79-36.07,48.7-27.51ZM535.35,266.82c4.39,1.71,11.67,1.82,20.66.32,1.5-.21,2.68,1.61,5.35,8.78,10.81,28.47,27.94,47.95,58.12,65.94,1.82,1.07,1.82,1.28-.64,2.68-3.53,1.93-14.34,1.61-20.34-.54-10.6-3.96-16.48-10.06-16.27-16.91.32-6.1-2.78-7.71-11.99-6.21-24.62,3.96-46.99-13.17-48.6-37.04-.43-6.64-.11-8.46,2.35-13.81,3-6.64,2.35-6.53,11.35-3.21ZM822.86,269.18c4.5,9.42,2.89,22.91-3.85,33.29-9.42,14.66-26.12,21.3-45.17,18.09-4.39-.75-5.35-.54-7.39,1.5-1.61,1.61-2.14,3.1-1.71,5.14,2.03,9.95-19.91,21.94-33.4,18.3-4.71-1.28-5.67-2.68-2.25-3.75,4.28-1.39,21.19-13.27,28.26-19.8,13.38-12.52,24.94-30.4,31.26-48.17,2.14-5.99,2.78-6.96,4.92-6.64,10.49,1.39,16.7,1.28,20.66-.21,6.1-2.25,6.53-2.14,8.67,2.25Z"/>
    <path d="M626.87,204.85c-11.45,2.46-15.09,5.03-11.77,8.35,1.5,1.39,2.14,1.39,5.99,0,2.46-.75,7.06-1.5,10.17-1.5,4.5,0,5.89-.43,6.85-2.03,2.14-4.17-3.32-6.42-11.24-4.82Z"/>
    <path d="M711.75,205.27c-2.35,1.5-2.46,4.92-.21,5.78.96.32,3.96.64,6.64.64,2.78.11,6.85.75,8.99,1.5,3.32,1.18,4.39,1.18,5.89,0,4.28-3.1-2.35-7.06-13.81-8.35-3.32-.43-6.42-.21-7.49.43Z"/>
    <path d="M627.4,231.61c-7.28,3.1-9.74,7.71-5.35,10.06,1.61.86,3.1.64,6.64-1.18,3.1-1.61,5.67-2.14,8.46-1.71,5.25.64,7.92-1.18,7.06-4.82-1.07-4.28-9.63-5.46-16.81-2.35Z"/>
    <path d="M706.94,231.5c-4.92,3.53-1.82,8.14,4.92,7.28,3.1-.43,5.46,0,8.67,1.71,5.46,2.78,8.88,1.61,8.35-2.78-.64-5.67-16.59-10.17-21.94-6.21Z"/>
    <path d="M597.11,233.85c-1.61,1.5-.64,3.64,2.03,4.71,2.78.96,2.78,1.07.96,3.1-1.82,1.93-1.61,5.35.32,5.35.43,0,3.21-1.5,5.99-3.21,6.42-4.07,6.1-6.1-.96-8.67-6.1-2.14-7.39-2.35-8.35-1.28Z"/>
    <path d="M745.15,236.1c-5.67,2.14-7.49,3.21-7.49,4.5,0,1.39,9.1,7.49,11.13,7.49,2.25,0,2.14-3.1,0-5.46-1.61-1.82-1.5-2.03,1.07-2.68,2.14-.54,2.78-1.28,2.57-2.89-.43-2.89-1.61-3-7.28-.96Z"/>
    <path d="M610.7,244.34c-2.14,5.46,8.24,10.28,22.37,10.6,11.56.11,17.98-1.07,22.69-4.28,3.53-2.35,4.71-2.57,17.66-2.57s14.13.21,17.66,2.57c9.95,6.74,39.18,5.35,43.99-2.14.96-1.39,1.5-3.32,1.07-4.17-.86-2.25-4.17-2.03-5.67.43-1.61,2.68-9.21,4.39-18.73,4.39-9.74-.11-15.41-1.28-18.41-4.17-2.25-2.14-3.64-2.25-20.23-2.25-13.81,0-17.98.32-18.63,1.5-1.71,2.78-6.32,4.17-15.95,4.71-11.24.54-20.23-1.07-22.16-4.17-1.5-2.46-4.82-2.68-5.67-.43Z"/>
    <path d="M630.08,275.92c-5.89,7.28-10.7,16.38-9.85,18.52,1.28,3.32,4.82,2.14,7.17-2.46,1.18-2.35,2.35-4.28,2.68-4.28.21,0,4.6,1.39,9.85,3.1,22.05,7.39,48.6,7.17,69.68-.43,4.07-1.5,7.71-2.68,8.14-2.68.32,0,1.61,1.93,2.78,4.28,1.5,2.89,2.89,4.28,4.39,4.28,5.25,0,3.1-6.85-5.89-19.05-3.64-4.92-5.57-6.64-7.49-6.64-3.64,0-4.07,2.46-1.07,6.53,1.39,1.93,2.57,3.85,2.57,4.39,0,1.61-17.88,6.32-28.58,7.6-8.56.86-13.38.86-21.94-.21-10.28-1.28-27.62-5.89-27.62-7.28,0-.32,1.28-2.25,2.78-4.28,3.1-4.07,2.78-6.74-.86-6.74-1.71,0-3.85,1.82-6.74,5.35Z"/>
  </g>
  <g>
    <path d="M670.13,312.49h.11v.77h.37v.09h-.48v-.86Z"/>
    <path d="M671.28,313.04c0,.23-.16.33-.31.33-.17,0-.3-.12-.3-.32,0-.21.14-.33.31-.33s.3.13.3.32ZM670.79,313.04c0,.14.08.24.19.24s.19-.1.19-.24c0-.11-.05-.24-.19-.24s-.19.12-.19.24Z"/>
    <path d="M671.42,312.93c0-.07,0-.14,0-.19h.1v.12h0c.03-.08.1-.14.17-.14.01,0,.02,0,.03,0v.11s-.02,0-.04,0c-.08,0-.14.06-.15.15,0,.01,0,.03,0,.05v.33h-.11v-.43Z"/>
    <path d="M671.89,313.06c0,.15.1.22.21.22.08,0,.13-.01.17-.03l.02.08s-.11.04-.21.04c-.19,0-.3-.12-.3-.31s.11-.33.29-.33c.2,0,.26.18.26.29,0,.02,0,.04,0,.05h-.44ZM672.22,312.98c0-.07-.03-.18-.16-.18-.11,0-.16.11-.17.18h.33Z"/>
    <path d="M672.47,312.9c0-.06,0-.12,0-.17h.1v.1h0c.03-.06.09-.11.19-.11.08,0,.15.05.18.12h0s.04-.06.07-.08c.04-.03.08-.04.14-.04.08,0,.2.05.2.27v.37h-.11v-.35c0-.12-.04-.19-.13-.19-.06,0-.11.05-.13.1,0,.02,0,.04,0,.06v.38h-.11v-.37c0-.1-.04-.17-.13-.17-.07,0-.12.06-.14.11,0,.02,0,.04,0,.06v.37h-.11v-.45Z"/>
    <path d="M673.94,312.56s-.03.07-.07.07c-.04,0-.07-.03-.07-.07s.03-.07.07-.07.07.03.07.07ZM673.81,313.35v-.62h.11v.62h-.11Z"/>
    <path d="M674.11,312.94c0-.08,0-.14,0-.2h.1v.11h0c.05-.08.12-.12.22-.12.15,0,.26.13.26.32,0,.22-.14.33-.28.33-.08,0-.15-.04-.19-.1h0v.34h-.11v-.67ZM674.23,313.1s0,.03,0,.05c.02.08.09.13.17.13.12,0,.19-.1.19-.24,0-.12-.07-.23-.18-.23-.08,0-.15.06-.17.14,0,.01,0,.03,0,.05v.11Z"/>
    <path d="M674.83,313.24s.09.04.15.04c.08,0,.12-.04.12-.09s-.03-.08-.12-.11c-.11-.04-.16-.1-.16-.18,0-.1.08-.18.21-.18.06,0,.12.02.15.04l-.03.08s-.07-.04-.13-.04c-.07,0-.1.04-.1.08,0,.05.04.07.12.1.11.04.16.09.16.19,0,.11-.08.19-.23.19-.07,0-.13-.02-.17-.04l.03-.09Z"/>
    <path d="M675.87,313.18c0,.06,0,.12,0,.17h-.1v-.1h0s-.09.12-.21.12c-.1,0-.21-.05-.21-.27v-.36h.11v.34c0,.12.04.2.14.2.08,0,.13-.05.15-.1,0-.02.01-.04.01-.06v-.38h.11v.45Z"/>
    <path d="M676.06,312.9c0-.06,0-.12,0-.17h.1v.1h0c.03-.06.09-.11.19-.11.08,0,.15.05.18.12h0s.04-.06.07-.08c.04-.03.08-.04.14-.04.08,0,.2.05.2.27v.37h-.11v-.35c0-.12-.04-.19-.13-.19-.06,0-.11.05-.13.1,0,.02,0,.04,0,.06v.38h-.11v-.37c0-.1-.04-.17-.13-.17-.07,0-.12.06-.14.11,0,.02,0,.04,0,.06v.37h-.11v-.45Z"/>
  </g>
  <rect class="cls-1" x="1111.43" y="455.31" width="2.16" height="0"/>
  <g>
    <path class="cls-1" d="M1174.9,420.79l-39.03,144.1-150.34-40.72,39.03-144.1,150.34,40.72ZM1073.85,394.9l-4.83-1.31-23.16,85.5c-17.36-4.05-61.9.47-50.53,28.11,8.06,19.59,42.5,31.94,61.89,34.82,10.55,1.57,21.07-.04,31.38,1.9,12.94,2.43,22.16,6.05,35.92,3.73,22.14-3.73,23.3-20.64,6.84-33.46-10.33-8.05-18.72-9.27-30.33-13.47-14.63-5.29-28.24-17.08-44.33-19.47-1.04-.15-1.8-.39-2.67.43l-4.86,17.93c3.39,3.43,10.7,5.02,7.02,11.21-1.58,2.66-10.37,2.31-13.07,1.57-4.7-1.29-14.94-7.97-7.75-12.48,1.06-.67,5.12-2.43,4.79.2-.22,1.76-1.99,5.31-1.49,6.69l4.35,1.87,30.81-113.76ZM1075.61,402.04l-9.9,36.54c19.76,5.97,38.95-8.9,58.83-4.05-8.3-13.05-25.87-15.21-38.12-23.26-4.01-2.63-7.1-6.28-10.82-9.23Z"/>
    <path d="M1073.85,394.9l-35.16,111.89c-.5-1.38,30.34-113.2,30.34-113.2l4.83,1.31Z"/>
    <path d="M1075.61,402.04c3.72,2.94,6.81,6.59,10.82,9.23,12.25,8.05,29.81,10.21,38.12,23.26-19.89-4.85-39.07,10.02-58.83,4.05l9.9-36.54Z"/>
  </g>
  <g>
    <path class="cls-1" d="M325.77,382.51l39.03,144.1-150.34,40.72-39.03-144.1,150.34-40.72ZM307.31,511.1l4.35-1.87c.5-1.38-1.27-4.93-1.49-6.69-.33-2.63,3.73-.87,4.79-.2,7.19,4.52-3.05,11.19-7.75,12.48-2.7.74-11.49,1.09-13.07-1.57-3.68-6.19,3.63-7.78,7.02-11.21l-4.86-17.93c-.87-.82-1.63-.58-2.67-.43-16.09,2.4-29.7,14.19-44.33,19.47-11.61,4.2-20,5.42-30.33,13.47-16.46,12.82-15.3,29.73,6.84,33.46,13.77,2.32,22.98-1.3,35.92-3.73,10.3-1.94,20.82-.33,31.38-1.9,19.39-2.88,53.83-15.23,61.89-34.82,11.37-27.64-33.16-32.16-50.53-28.11l-23.16-85.5-4.83,1.31,30.81,113.76ZM263.91,413.7c-12.25,8.05-29.81,10.21-38.12,23.26,19.89-4.85,39.07,10.02,58.83,4.05l-9.9-36.54c-3.72,2.94-6.81,6.59-10.82,9.23Z"/>
    <path d="M276.49,397.34l35.16,111.89c.5-1.38-30.34-113.2-30.34-113.2l-4.83,1.31Z"/>
    <path d="M274.73,404.48c-3.72,2.94-6.81,6.59-10.82,9.23-12.25,8.05-29.81,10.21-38.12,23.26,19.89-4.85,39.07,10.02,58.83,4.05l-9.9-36.54Z"/>
  </g>
</svg>