<?xml version="1.0" encoding="UTF-8"?>
<svg id="Layer_1" xmlns="http://www.w3.org/2000/svg" version="1.1" viewBox="0 0 1366 768">
  <!-- Generator: Adobe Illustrator 29.5.0, SVG Export Plug-In . SVG Version: 2.1.0 Build 137)  -->
  <defs>
    <style>
      .st0 {
        fill: none;
      }
    </style>
  </defs>
  <g>
    <path d="M401.3,441c2.1.5,3.7,1.5,4.7,2.7,1,1.3,1.5,2.6,1.5,4.1s-.5,2.6-1.4,3.7c-.9,1.2-2.2,2.1-3.9,2.7v24.9c0,2.4-.8,4.5-2.5,6.1-1.6,1.7-3.2,3.2-4.7,4.6-3.6,3.5-7.9,6.1-12.8,7.7s-9.9,2.4-15,2.4c-8.2,0-15.5-1.7-21.7-5-6.2-3.4-11.4-7.6-15.5-12.8s-7.2-10.8-9.3-16.8c-2.1-6.1-3.1-11.9-3.1-17.4s.4-6.7,1.2-10.4c.8-3.8,2-7.5,3.6-11.1s3.7-7.1,6.2-10.3c2.5-3.2,5.4-5.9,8.8-8,6.1-3.9,12.3-7,18.7-9.5s12.9-3.7,19.6-3.7,4.2.2,7,.6c2.7.4,5.3,1,7.9,1.8,2.5.8,4.7,2,6.5,3.4s2.7,3.2,2.7,5.3-.6,3.3-1.9,4.5-2.8,1.8-4.7,1.8-2.2-.2-3.6-.7-2.8-.9-4.3-1.4-3.1-1-4.7-1.4c-1.6-.4-3.2-.7-4.8-.7s-2.2,0-3.2.2c-1,.1-2,.3-3,.7-4.4,1.3-8.9,2.9-13.4,4.7-4.5,1.8-8.6,4.2-12.3,7.2-3.7,3-6.6,6.7-8.9,11-2.3,4.4-3.4,9.8-3.4,16.3s1,10.3,2.9,15,4.5,8.8,7.6,12.2c3.2,3.4,6.8,6.1,11,8.1,4.2,2,8.5,3,13,3s7.9-.8,11.7-2.3c3.8-1.5,7.3-3.9,10.5-7v-22.5c-4.3.1-8.6.2-12.8.2h-12.8c-2.5-.3-4.3-1.2-5.5-2.5s-1.8-2.8-1.8-4.3.6-3.1,2-4.6c1.3-1.5,3.2-2.2,5.9-2.2s3.5,0,7.2,0,7.6,0,11.8,0,8.1,0,11.8,0c3.7,0,6.1,0,7.2,0h0Z"/>
    <path d="M435.9,497.6c-1.4,1.3-3,1.9-4.7,1.9s-3-.6-4.4-1.7-2.2-3-2.5-5.4v-79.1c-1.8-.2-3.2-.9-4.3-2.1s-1.6-2.6-1.6-4.2.2-2,.8-3.1c.5-1.1,1.3-2.1,2.5-3,4.9-3,10.3-5.4,16.3-7.2,6-1.8,12-2.7,18.1-2.7s9.7.7,14.3,2c4.6,1.3,8.8,3.5,12.6,6.5,4.5,3.5,7.8,7.4,9.8,11.6,2,4.2,3,8.5,3,12.9s-.6,7-1.8,10.4c-1.2,3.4-2.9,6.7-5,9.7s-4.7,5.8-7.7,8.3c-3,2.5-6.4,4.6-10.1,6.2,4.3,4.8,8.9,9.8,13.9,15.1s9.6,10.3,13.9,14.9c1.2,1.5,1.9,3.3,1.9,5.1s-.6,3.4-1.9,4.6-2.8,1.7-4.6,1.7-1.9-.2-3-.6c-1.1-.4-2.1-1.1-3-2.1-.7-.8-1.9-2.1-3.6-3.9s-3.6-3.9-5.8-6.1c-2.1-2.3-4.4-4.7-6.8-7.3s-4.6-5-6.7-7.3-4-4.3-5.7-6c-1.7-1.8-2.9-3-3.6-3.8-3,.5-6.1.9-9.1,1.2s-6.1.4-9.1.5v27.4c-.1,2.5-.9,4.5-2.3,5.7h0ZM474,409.6c-2.7-1.9-5.7-3.2-8.9-4-3.2-.8-6.5-1.2-9.9-1.2s-5.8.3-8.6.8-5.6,1.3-8.3,2.3v43.3c4.3-.2,8.6-.5,12.9-1,4.3-.4,8.5-1.4,12.7-3,2.5-.9,4.8-2.2,7-3.8s4.1-3.5,5.9-5.6c1.7-2.1,3-4.3,4-6.7,1-2.4,1.4-4.7,1.4-7s-.6-5-1.9-7.5-3.3-4.6-6.3-6.6h0Z"/>
    <path d="M601.9,491.2c-.1,2.1-.7,3.8-1.7,5.1-1,1.3-2.3,2.1-3.7,2.4s-2.9,0-4.4-.8c-1.5-.8-2.7-2.1-3.7-4-.7-5.2-1.6-10.3-2.9-15.3s-2.7-10-4.4-15l-44.9.3c-.2,0-.5,0-.8,0s-.5,0-.8,0c-2.8,9.4-5.4,19.1-7.6,29.2-.9,2.3-2.2,3.9-3.9,4.6-1.7.8-3.3.9-4.8.5-1.5-.4-2.8-1.4-3.7-3-1-1.5-1.2-3.5-.8-6,3.7-16,8.2-31.7,13.5-47,5.2-15.3,11.8-30.2,19.7-44.8.7-2.1,2.3-3.4,4.7-4,1.2-.4,2.4-.5,3.6-.2,1.1.3,2.1.8,2.9,1.6.1,0,.2,0,.2,0s0,0,.2,0c5.9,5.5,10.8,11.8,14.7,18.7,4,7,7.6,14,10.8,21.2,1.2,2.5,2.4,5.1,3.5,7.6,1.1,2.5,2.1,5.1,3.1,7.6l9-.2c2.1.7,3.7,1.7,4.7,3s1.5,2.7,1.4,4.1-.7,2.7-1.8,4c-1.1,1.3-2.8,2.1-4.9,2.6h-3.6c1.5,4.5,2.7,9.1,3.8,13.7,1.1,4.6,1.9,9.3,2.5,14h0ZM555.1,411.5c-3.2,6.3-6.1,12.7-8.7,19.2-2.7,6.5-5.1,13.1-7.4,19.7l36.9-.3c-1.5-3.3-3-6.6-4.5-9.8-1.5-3.2-3.1-6.4-4.7-9.6-1.8-3.2-3.6-6.5-5.4-9.8-1.8-3.3-3.9-6.5-6.3-9.5h0Z"/>
    <path d="M685.9,399.5c.6-2.2,1.5-3.9,2.7-5,1.2-1.1,2.7-1.7,4.2-1.7s2.8.5,4.2,1.5c1.3,1,2.2,2.5,2.8,4.6,0,15.8-.1,31.1-.3,45.9-.2,14.8-.8,30.1-1.7,45.9l.2.2h-.2c-.1.5-.2,1-.2,1.4v1.2c-.7,1.8-1.6,3.1-2.8,4-1.2.9-2.5,1.3-3.8,1.3-2,0-4-.9-5.8-2.6-.2-.4-.5-.8-.7-1.2-.2-.3-.5-.7-.7-1h-.2v-.3c-4.1-6.7-8.2-13.2-12.5-19.3s-8.7-12.1-13.2-18.1c-4.5-5.9-9.1-11.8-13.8-17.6-4.7-5.8-9.5-11.7-14.5-17.8v33.6c0,5.6,0,11.4,0,17.5,0,6.1,0,12.6,0,19.7-.1,2.5-.9,4.5-2.3,5.7s-3,1.9-4.7,1.9-3-.6-4.4-1.7-2.2-3-2.5-5.4c0-14.9,0-30,0-45.3,0-15.3,0-30.4,0-45.3.5-2,1.3-3.5,2.5-4.6s2.7-1.7,4.2-1.7,3.3.6,5.1,1.8c5.2,6.1,10.3,12,15.2,17.8,5,5.8,9.8,11.6,14.7,17.5,4.8,5.9,9.5,11.9,14,18,4.5,6.1,8.9,12.5,13.2,19.1.5-12.1.8-23.8.9-35s.2-22.9.2-35.1h0Z"/>
    <path d="M786.5,399.5c.6-2.2,1.5-3.9,2.7-5,1.2-1.1,2.7-1.7,4.2-1.7s2.8.5,4.2,1.5c1.3,1,2.2,2.5,2.8,4.6,0,15.8-.1,31.1-.3,45.9-.2,14.8-.8,30.1-1.7,45.9l.2.2h-.2c-.1.5-.2,1-.2,1.4v1.2c-.7,1.8-1.6,3.1-2.8,4-1.2.9-2.5,1.3-3.8,1.3-2,0-4-.9-5.8-2.6-.2-.4-.5-.8-.7-1.2-.2-.3-.5-.7-.7-1h-.2v-.3c-4.1-6.7-8.2-13.2-12.5-19.3s-8.7-12.1-13.2-18.1c-4.5-5.9-9.1-11.8-13.8-17.6-4.7-5.8-9.5-11.7-14.5-17.8v33.6c0,5.6,0,11.4,0,17.5,0,6.1,0,12.6,0,19.7-.1,2.5-.9,4.5-2.3,5.7s-3,1.9-4.7,1.9-3-.6-4.4-1.7-2.2-3-2.5-5.4c0-14.9,0-30,0-45.3,0-15.3,0-30.4,0-45.3.5-2,1.3-3.5,2.5-4.6s2.7-1.7,4.2-1.7,3.3.6,5.1,1.8c5.2,6.1,10.3,12,15.2,17.8,5,5.8,9.8,11.6,14.7,17.5,4.8,5.9,9.5,11.9,14,18,4.5,6.1,8.9,12.5,13.2,19.1.5-12.1.8-23.8.9-35s.2-22.9.2-35.1h0Z"/>
    <path d="M858.2,490.5c-.1,2.5-.9,4.5-2.3,5.7s-3,1.9-4.7,1.9-3-.6-4.4-1.7-2.2-3-2.5-5.4c0-6.7,0-13.5,0-20.1,0-6.7,0-13.5,0-20.3-7-6.6-13.4-13.7-19.2-21.3-5.8-7.6-10.2-16-13.1-25.3,0-.2,0-.5,0-.8,0-.3,0-.5,0-.8,0-2.3.7-4.1,2-5.4,1.3-1.3,2.8-1.9,4.5-1.9,2.6,0,4.8,1.3,6.6,3.8,2.5,7.9,6,15,10.7,21.3,4.6,6.4,9.8,12.4,15.6,18,5.4-6.3,10.9-12.6,16.3-19,5.5-6.4,10.2-13.2,14.2-20.5.9-1.5,2-2.6,3.1-3.3,1.2-.7,2.3-1,3.5-1,1.7,0,3.2.6,4.6,1.8,1.4,1.2,2,2.8,2,4.8s-.3,2.2-.8,3.6c-4.6,8.3-10.1,16.1-16.4,23.5-6.3,7.4-12.5,14.7-18.6,22l-.7.7v19.8c0,6.6,0,13.2.2,19.8h0Z"/>
    <path d="M924.1,381.8c.9-1.5,1.9-2.6,3-3.3s2.3-1,3.6-1,3.2.6,4.5,1.8c1.3,1.2,2,2.8,2,4.8s-.2,2.4-.7,3.6c-2.2,4.2-4.3,8.5-6.3,12.8-2.1,4.3-4.2,8.6-6.3,12.8-.9,1.2-1.9,2.1-3,2.6s-2.2.8-3.2.8c-1.7,0-3.2-.6-4.5-1.9-1.3-1.3-2-3-2-5.1s0-.8,0-1.2c0-.3.1-.7.2-1.2,2.1-4.2,4.3-8.5,6.3-12.8,2.1-4.3,4.2-8.6,6.3-12.8h0Z"/>
    <path d="M956.8,484c-.7-1.5-1-3-1-4.3s.6-3.4,1.8-4.6,2.7-1.7,4.5-1.7,3.6.6,5.2,1.8c1.9,2.2,4.2,4.1,6.7,5.5s5.2,2.6,8.1,3.5c2.9.8,5.8,1.4,8.8,1.7s5.9.5,8.7.5c1.9-.7,3.2-1.1,4-1.2.7-.2,1.3-.4,1.8-.6s1-.5,1.5-1c.6-.4,1.6-1.2,3.2-2.3.6-.8,1.1-1.5,1.5-2.1s1-1.4,1.5-2.1l1.5-4.5v-2.2c0-.7,0-1.5-.2-2.4-.2-.8-.5-1.5-.8-2.2-.3-.7-.7-1.5-1-2.2-.7-.8-1.3-1.5-2-2.1s-1.3-1.4-2-2.2c-1-.5-2-1.2-3-1.8-1-.7-2.2-1.2-3.4-1.5-4.6-1.5-8.9-2.6-12.8-3.2-3.9-.6-7.6-1.4-11-2.3-3.5-.9-6.7-2.4-9.7-4.4-3-2-6-5.2-9-9.6-.6-.9-.9-1.5-1-2-.1-.4-.2-1.2-.3-2.3-.1-.9-.2-1.7-.2-2.6,0-.8,0-1.6,0-2.4,0-2,.2-3.8.6-5.3s1-3,1.8-4.5c.8-1.4,1.8-2.9,3-4.4,1.2-1.5,2.7-3.1,4.4-4.9,1.9-2,4.1-3.6,6.6-4.9,2.5-1.3,5.1-2.3,7.8-3,2.7-.7,5.5-1.2,8.4-1.5,2.9-.3,5.7-.4,8.4-.4h2.5c.7,0,1.5,0,2.3.2,2.6.2,5,.8,7.4,1.8,2.3,1,4.7,1.8,7.2,2.5,2.6,1.8,3.9,3.9,3.9,6.5s-.7,3.1-2,4.4c-1.3,1.3-3.1,1.9-5.5,1.9s-.5,0-.8,0-.5,0-.8,0c-3.6-1.1-6.8-2-9.6-2.6-2.8-.6-5.5-.9-8-.9s-5.5.4-8.3,1.3c-2.8.9-6.1,2.4-9.8,4.5-.7.9-1.4,1.7-2,2.4-.7.7-1.4,1.5-2,2.2-.3.7-.7,1.3-.9,2-.3.7-.5,1.3-.8,2,0,.7,0,1.3,0,2,0,.7.1,1.3.2,1.8.5.5.8,1.1,1.2,1.7.3.5.7,1.1,1.2,1.7l7.1,4c3.4.8,6.5,1.4,9.5,2s5.8,1.2,8.5,1.9c2.7.7,5.4,1.6,8,2.6,2.7,1,5.5,2.3,8.6,4,1.6.9,2.9,2,4.1,3.4s2.2,2.7,3.2,3.9c1.8,2.1,3.1,4.5,4,7.1.8,2.6,1.3,5.4,1.3,8.3s-.8,7.9-2.4,11.6c-1.6,3.8-3.8,6.9-6.8,9.3-1,.9-2.1,1.7-3.1,2.4-1.1.7-2.1,1.4-3.1,2.1-2.4,1.5-5,2.7-8,3.5-2.9.8-6,1.2-9.3,1.2s-7.5-.4-11.3-1.2c-3.8-.8-7.4-2-10.9-3.5-3.5-1.5-6.7-3.2-9.7-5.2s-5.4-4.1-7.5-6.5h0Z"/>
    <path d="M537.2,621c2.1.5,3.7,1.5,4.7,2.7,1,1.3,1.5,2.6,1.5,4.1s-.5,2.6-1.3,3.7c-.9,1.2-2.2,2.1-3.9,2.7v24.9c0,2.4-.8,4.5-2.5,6.1-1.6,1.7-3.2,3.2-4.7,4.6-3.6,3.5-7.9,6.1-12.8,7.7-4.9,1.6-9.9,2.4-15,2.4-8.2,0-15.5-1.7-21.7-5-6.2-3.4-11.4-7.6-15.5-12.8s-7.2-10.8-9.3-16.8c-2.1-6.1-3.1-11.9-3.1-17.4s.4-6.7,1.2-10.4c.8-3.8,2-7.5,3.6-11.1,1.6-3.7,3.7-7.1,6.2-10.3,2.5-3.2,5.4-5.9,8.8-8,6.1-3.9,12.3-7,18.7-9.5,6.4-2.5,12.9-3.7,19.6-3.7s4.2.2,6.9.6c2.7.4,5.3,1,7.9,1.8s4.7,2,6.5,3.4,2.7,3.2,2.7,5.3-.6,3.3-1.9,4.5-2.8,1.8-4.7,1.8-2.2-.2-3.6-.7-2.8-.9-4.3-1.4-3.1-1-4.7-1.4c-1.6-.4-3.2-.7-4.8-.7s-2.2,0-3.2.2-2,.3-3,.7c-4.4,1.3-8.9,2.9-13.4,4.7-4.5,1.8-8.6,4.2-12.3,7.2-3.7,3-6.6,6.7-8.9,11-2.3,4.4-3.4,9.8-3.4,16.3s1,10.3,2.9,15,4.5,8.8,7.6,12.2c3.2,3.4,6.8,6.1,11,8.1,4.2,2,8.5,3,13,3s7.9-.8,11.7-2.3c3.8-1.5,7.3-3.9,10.5-7v-22.5c-4.3.1-8.6.2-12.8.2h-12.8c-2.5-.3-4.3-1.2-5.5-2.5s-1.8-2.8-1.8-4.3.6-3.1,2-4.6c1.3-1.5,3.2-2.2,5.9-2.2s3.5,0,7.2,0,7.6,0,11.8,0,8.1,0,11.8,0c3.7,0,6.1,0,7.2,0h0Z"/>
    <path d="M627.8,582.8c.6-2.2,1.5-3.9,2.7-5,1.2-1.1,2.7-1.7,4.2-1.7s2.8.5,4.2,1.5c1.3,1,2.2,2.5,2.8,4.6-.1,7-.3,14.3-.6,22s-.8,15.1-1.5,22.4c-.7,7.2-1.8,14-3,20.4s-3.1,11.7-5.3,16.2c-1.2,2.7-3,5-5.3,6.9s-4.9,3.5-7.8,4.8-5.9,2.2-9.1,2.8-6.2.9-9.2.9-6.9-.4-10.2-1.2c-3.3-.8-6.4-2-9.3-3.6s-5.4-3.6-7.6-6c-2.2-2.4-3.9-5.2-5-8.4-1.9-5.3-3.2-11.1-4-17.5-.7-6.3-1.2-12.9-1.4-19.6s-.2-13.4,0-20c.1-6.6.2-12.9.2-18.7.6-2.2,1.5-3.9,2.7-5,1.2-1.1,2.7-1.7,4.2-1.7s2.8.5,4.2,1.5c1.3,1,2.2,2.5,2.8,4.6,0,3.7,0,7.8-.2,12.5-.1,4.7-.2,9.6-.2,14.6,0,5,0,10.1.2,15.1.2,5,.5,9.8,1,14.2s1.3,8.3,2.4,11.8,2.5,6,4.3,7.8c2.4,2.4,5,4.1,8,4.9,3,.8,5.9,1.2,8.7,1.2s6.7-.7,10-2.2c3.3-1.4,6.2-3.8,8.8-7,1.4-1.7,2.5-4.2,3.3-7.7.8-3.5,1.6-7.4,2.2-11.8s1.1-9.1,1.4-14.2c.3-5,.6-10,.8-14.8.2-4.9.4-9.5.4-13.8,0-4.3.1-8,.2-10.9h0Z"/>
    <path d="M700.3,662.6c2.5-.1,4.4.4,5.8,1.7,1.4,1.2,2.2,2.6,2.5,4.1.2,1.5-.2,3.1-1.3,4.6-1.1,1.5-2.8,2.5-5.3,3.1-5.9.2-11.7.3-17.5.2-5.8,0-11.7,0-17.5,0-2.5-.3-4.3-1.2-5.5-2.6s-1.8-2.9-1.7-4.5.7-3.1,2-4.4c1.3-1.3,3.2-2,5.7-2.2h5c1.6,0,3.3,0,5,.2v-72.4h-10.7c-2.5-.3-4.3-1.2-5.5-2.6s-1.8-2.9-1.7-4.5.7-3.1,2-4.4c1.3-1.3,3.2-2,5.7-2.2h34.9c2.1.7,3.7,1.7,4.7,3,1,1.3,1.5,2.7,1.4,4.1s-.7,2.7-1.8,4c-1.1,1.3-2.8,2.1-4.9,2.6h-10.3v72.6c1.5,0,2.9,0,4.4,0s3-.1,4.6-.2h0Z"/>
    <path d="M740.1,679.8c-1.7-.2-3.1-.7-4.2-1.4s-2-1.6-2.5-2.6l-.5-1c-.2-.5-.5-1.1-.7-1.7s-.3-1.2-.3-1.7v-74.4c-1,.3-1.8.6-2.5.9-.6.3-1.5.4-2.6.4-2.2,0-3.9-.6-5.2-1.8s-2-2.7-2-4.3c0-2.4,1.4-4.5,4.3-6.3,2.9-1.8,6.3-3.2,10.2-4.4,4-1.2,8.1-2,12.5-2.6,4.3-.5,7.9-.8,10.8-.8,8.2,0,15.6,1.3,22,4,6.4,2.7,11.9,6.2,16.3,10.7,4.4,4.5,7.8,9.7,10.1,15.7,2.3,6,3.5,12.2,3.5,18.7s-1.2,13.1-3.7,19.5c-2.5,6.4-6.3,11.9-11.3,16.7-3.5,3.3-7.4,5.9-11.8,7.9-4.3,1.9-8.9,3.5-13.6,4.6-4.7,1.2-9.5,2-14.4,2.6-4.9.5-9.6,1-14.2,1.5h0ZM757.2,591.6c-1.9,0-3.8.1-5.8.3-1.9.2-3.8.5-5.8.8v72.9c3.3-.3,6.8-.7,10.4-1.2s7.3-1.1,10.8-2c3.5-.9,6.8-2,9.8-3.5,3-1.4,5.6-3.3,7.6-5.5,3.6-3.9,6.3-8.2,8.2-13.1,1.9-4.9,2.8-9.8,2.8-14.9s-.8-8.7-2.5-12.8-4.1-7.7-7.3-10.9c-3.2-3.2-7.2-5.7-11.9-7.5s-10.2-2.8-16.4-2.8h0Z"/>
    <path d="M883.1,659.4c2.1-.1,3.9.3,5.3,1.2,1.4.9,2.3,2.1,2.7,3.5.4,1.4.3,2.8-.3,4.3-.6,1.5-1.9,2.8-3.8,3.9-4.1,1.1-8.4,2-13,2.7-4.6.7-9.3,1.1-14.1,1.2-4.7.2-9.4,0-14.1-.2s-9-1-13.2-2c-1.8-.9-3.1-2-3.9-3.2-.8-1.3-1.1-2.5-1-3.7v-72.9c-1.5-.4-2.6-1.2-3.4-2.3-.8-1.1-1.2-2.3-1.2-3.7s.5-2.6,1.4-3.9c.9-1.3,2.3-2.2,4.2-2.9,4.4-1.3,8.9-2.2,13.5-2.7,4.6-.5,9.2-.8,13.8-1,4.6-.2,9.3-.2,13.9-.2s9.2-.1,13.7-.3c2.5-.1,4.4.4,5.8,1.7,1.4,1.2,2.2,2.6,2.5,4.1.2,1.5-.2,3.1-1.3,4.6-1.1,1.5-2.8,2.5-5.3,3.1-6.8.3-14,.4-21.6.3s-15,.4-22.1,1.5v29.2c5.9.2,11.8.2,17.7,0s11.9-.7,17.9-1.2c2.5-.1,4.4.4,5.8,1.7,1.4,1.2,2.2,2.6,2.5,4.1.2,1.5-.2,3.1-1.3,4.6-1.1,1.5-2.8,2.5-5.3,3.1-6.2.5-12.5,1-18.7,1.3-6.3.3-12.5.4-18.5.2v26.8c6.8,1,13.8,1.2,21.1.8,7.3-.5,14.1-1.6,20.4-3.2h0Z"/>
  </g>
  <polygon class="st0" points="1050.4 634.3 1052.7 634.3 1052.7 634.3 1050.4 634.3"/>
  <rect class="st0" x="1082.2" y="178.3" width="33.9" height="65.5"/>
  <g>
    <path d="M622.2,52.2c-9.8,2.7-15.7,6.1-21.3,12.3l-4.3,4.8-5.7-1.2c-20.5-4.4-44.4,10.7-54.1,34.5-1.5,3.8-3.3,11.6-4.2,18-.9,6.2-3.2,21.2-5.2,33.3-4.3,24.9-6.5,47.3-5.5,54.1.5,4.2.2,5.1-3,9.4-6.8,9.1-8.1,23.2-2.8,33.5l2.7,5.1-3.4,5.8c-10.2,16.8-6.1,39.6,9.6,55.5,10.4,10.4,22.4,15.4,36.9,15.4h8.1c0,.1,3.2,5.7,3.2,5.7,6.2,10.7,19.3,17.9,34.2,18.7,10.4.5,15.5-.9,21-5.8l4.1-3.6,9.3,2.7c14.2,4.1,30.2,5.6,44.3,4,6.5-.8,15.6-2.5,20.3-3.9l8.6-2.5,2.9,3c4.8,5,10.7,6.6,21.5,6.1,7.6-.4,10.8-1.2,16.6-3.8,8.5-4,15.8-10.4,18.5-16.4l1.9-4.3h8.2c14.6,0,26.8-5,36.9-15.4,10.1-10.2,15.5-22.7,15.5-35.5s-3.1-17.1-6.3-21.6c-1.6-2.2-1.9-3.5-1.1-4.1.6-.3,2.3-3.2,3.8-6.2,5.2-11.2,2.7-27.4-5.7-35.2-2.9-2.7-3.2-3.5-2.7-8.1.8-7.7-1.6-29-5.9-53.6-2-12.1-4.2-26-4.8-31-1.9-16.8-7.6-29.2-18-39.6-11-11-26.7-16.6-39.6-14.1l-6.5,1.2-4.4-4.8c-5.9-6.4-11.6-9.6-21.7-12.2-14.9-3.8-36.3-2.1-47.5,3.8-3.1,1.5-3.6,1.5-7.3-.4-11-5.5-32.9-7.1-47.3-3.3h0ZM662.7,65.6c8.7,3.8,12.6,3.8,21.4,0,6-2.7,8.7-3.1,19.5-3.5,10.5-.4,13.6-.1,19.8,1.7,8.7,2.7,15.6,8.1,17.5,13.7,1.7,5.1,4.5,6,11.7,3.5,12.3-4.3,23.8-1.5,34.4,8.3,7.4,6.7,13.4,17.7,15,27.1,8.9,51.7,10.9,66.6,11.1,80.7v12.7c.1,0-3,.9-3,.9-3.8,1.1-8.5,5.5-12,11.4-1.8,3-3.3,4.5-4.5,4.3-3.1-.5-8.5-13.4-14.2-34-7.6-27.3-10.9-33.5-16.8-31.5-2.2.8-3.1,2-4,5.6-1.3,5.4-2.9,6.6-8.1,6.6s-3.8-.1-5.1-5.6c-2.5-11.1-11.2-20.9-24.9-27.7-15.6-7.9-32.8-8.5-43-1.5l-3.8,2.6-3.8-2.6c-20.9-14.1-64.3,5-67.8,30-.6,4.2-.8,4.3-5,4.6-5.1.3-7.9-1.7-7.9-5.8s-3.4-6.9-5.9-6.9c-4.9,0-8.7,7.8-15.5,32.7-6.3,23-10.9,33.7-14.2,33.7s-3.3-2.9-5.5-6.4c-3.2-5.1-5-6.9-9.2-8.8l-5.3-2.5v-7c0-9.9,1.5-22.4,6.4-53,6.2-38.2,6.1-37.7,9.5-45.2,9-19.1,28.4-29,45.1-23.1,6.7,2.5,10.1,1.8,11.2-2,1.2-3.8,5.5-9,9.4-11.4,6.6-4.1,14.2-5.5,28-5.1,11.5.3,13.6.6,19.8,3.4h0ZM661.7,146.9c1.5.8,4.2,3.1,6.1,5.2,1.9,2.2,4.4,3.9,5.7,3.9s3.8-1.6,5.7-3.9c4.9-5.6,8.7-7.2,16.8-7.1,12.3.1,27.4,7.7,34.5,17.3,3,4.1,3.5,5.7,3.5,10.8s.6,6.7,1.4,7.6c1.8,2.2,14.1,4.5,19.2,3.5,2.2-.4,5.2-1.4,6.8-2.1l2.9-1.5,1.8,6.6c8.7,32,13.1,42.6,19.2,47.3,8.2,6.2,16.7,4.3,22-5.1,4.1-7.3,5.5-8.5,9.3-7.9,3.6.4,7.4,5.5,8.3,11.4,1.4,8.6-3.8,18.2-11.7,21.9-5.6,2.7-14.2,2.2-19.4-1-8.3-5.1-10.5-3.8-13.9,8.6-13.6,49.5-59.3,82.7-110.2,80.5-20.9-1-38.1-6.6-55.5-18.2-22.4-15-37.7-36.1-45-62.2-3.5-12.4-5.2-13.5-13.7-8.7-12.2,7-27.7.3-30.7-13.2-1.8-8,2.5-19.5,7.4-19.5s5.9,4.7,9.7,11.6c2.3,4.4,8.8,6.4,14.7,4.6,9.2-2.7,14.8-14.1,23.7-47.9l2.3-8.8,3.1,1.5c4.6,2.5,11.7,3.1,18.3,1.7,7.7-1.6,9.8-4,8.9-9.5-2.8-16.6,31.8-36.1,48.7-27.5h0ZM535.3,266.8c4.4,1.7,11.7,1.8,20.7.3,1.5-.2,2.7,1.6,5.3,8.8,10.8,28.5,27.9,48,58.1,65.9,1.8,1.1,1.8,1.3-.6,2.7-3.5,1.9-14.3,1.6-20.3-.5-10.6-4-16.5-10.1-16.3-16.9.3-6.1-2.8-7.7-12-6.2-24.6,4-47-13.2-48.6-37-.4-6.6-.1-8.5,2.3-13.8,3-6.6,2.3-6.5,11.3-3.2h0ZM822.9,269.2c4.5,9.4,2.9,22.9-3.8,33.3-9.4,14.7-26.1,21.3-45.2,18.1-4.4-.8-5.3-.5-7.4,1.5-1.6,1.6-2.1,3.1-1.7,5.1,2,10-19.9,21.9-33.4,18.3-4.7-1.3-5.7-2.7-2.2-3.8,4.3-1.4,21.2-13.3,28.3-19.8,13.4-12.5,24.9-30.4,31.3-48.2,2.1-6,2.8-7,4.9-6.6,10.5,1.4,16.7,1.3,20.7-.2,6.1-2.2,6.5-2.1,8.7,2.2h0Z"/>
    <path d="M626.9,204.9c-11.5,2.5-15.1,5-11.8,8.4,1.5,1.4,2.1,1.4,6,0,2.5-.8,7.1-1.5,10.2-1.5,4.5,0,5.9-.4,6.8-2,2.1-4.2-3.3-6.4-11.2-4.8h0Z"/>
    <path d="M711.8,205.3c-2.3,1.5-2.5,4.9-.2,5.8,1,.3,4,.6,6.6.6,2.8.1,6.8.8,9,1.5,3.3,1.2,4.4,1.2,5.9,0,4.3-3.1-2.3-7.1-13.8-8.4-3.3-.4-6.4-.2-7.5.4h0Z"/>
    <path d="M627.4,231.6c-7.3,3.1-9.7,7.7-5.3,10.1,1.6.9,3.1.6,6.6-1.2,3.1-1.6,5.7-2.1,8.5-1.7,5.2.6,7.9-1.2,7.1-4.8-1.1-4.3-9.6-5.5-16.8-2.4h0Z"/>
    <path d="M706.9,231.5c-4.9,3.5-1.8,8.1,4.9,7.3,3.1-.4,5.5,0,8.7,1.7,5.5,2.8,8.9,1.6,8.3-2.8-.6-5.7-16.6-10.2-21.9-6.2h0Z"/>
    <path d="M597.1,233.9c-1.6,1.5-.6,3.6,2,4.7,2.8,1,2.8,1.1,1,3.1-1.8,1.9-1.6,5.4.3,5.4s3.2-1.5,6-3.2c6.4-4.1,6.1-6.1-1-8.7-6.1-2.1-7.4-2.4-8.3-1.3h0Z"/>
    <path d="M745.2,236.1c-5.7,2.1-7.5,3.2-7.5,4.5s9.1,7.5,11.1,7.5,2.1-3.1,0-5.5c-1.6-1.8-1.5-2,1.1-2.7,2.1-.5,2.8-1.3,2.6-2.9-.4-2.9-1.6-3-7.3-1Z"/>
    <path d="M610.7,244.3c-2.1,5.5,8.2,10.3,22.4,10.6,11.6.1,18-1.1,22.7-4.3,3.5-2.4,4.7-2.6,17.7-2.6s14.1.2,17.7,2.6c10,6.7,39.2,5.4,44-2.1,1-1.4,1.5-3.3,1.1-4.2-.9-2.2-4.2-2-5.7.4-1.6,2.7-9.2,4.4-18.7,4.4-9.7-.1-15.4-1.3-18.4-4.2-2.2-2.1-3.6-2.2-20.2-2.2s-18,.3-18.6,1.5c-1.7,2.8-6.3,4.2-16,4.7-11.2.5-20.2-1.1-22.2-4.2-1.5-2.5-4.8-2.7-5.7-.4h0Z"/>
    <path d="M630.1,275.9c-5.9,7.3-10.7,16.4-9.8,18.5,1.3,3.3,4.8,2.1,7.2-2.5,1.2-2.4,2.3-4.3,2.7-4.3s4.6,1.4,9.8,3.1c22,7.4,48.6,7.2,69.7-.4,4.1-1.5,7.7-2.7,8.1-2.7s1.6,1.9,2.8,4.3c1.5,2.9,2.9,4.3,4.4,4.3,5.2,0,3.1-6.9-5.9-19-3.6-4.9-5.6-6.6-7.5-6.6-3.6,0-4.1,2.5-1.1,6.5,1.4,1.9,2.6,3.9,2.6,4.4,0,1.6-17.9,6.3-28.6,7.6-8.6.9-13.4.9-21.9-.2-10.3-1.3-27.6-5.9-27.6-7.3s1.3-2.2,2.8-4.3c3.1-4.1,2.8-6.7-.9-6.7s-3.8,1.8-6.7,5.4h0Z"/>
  </g>
  <g>
    <path d="M670.1,312.5h.1v.8h.4c0,0-.5,0-.5,0v-.9Z"/>
    <path d="M671.3,313c0,.2-.2.3-.3.3s-.3-.1-.3-.3.1-.3.3-.3.3.1.3.3ZM670.8,313c0,.1,0,.2.2.2s.2-.1.2-.2,0-.2-.2-.2-.2.1-.2.2Z"/>
    <path d="M671.4,312.9v-.2h0s0,0,.2,0h0c0,.1,0,.1,0,.1,0,0-.1,0-.2.1h0v.4h-.1v-.4h0Z"/>
    <path d="M671.9,313.1c0,.1,0,.2.2.2s.1,0,.2,0h0c0,0-.1.1-.2.1-.2,0-.3-.1-.3-.3s.1-.3.3-.3.3.2.3.3h0s-.4,0-.4,0h0ZM672.2,313c0,0,0-.2-.2-.2s-.2.1-.2.2h.3,0Z"/>
    <path d="M672.5,312.9v-.2h0s0,0,.2,0,.2,0,.2.1h0s0,0,0,0c0,0,0,0,.1,0s.2,0,.2.3v.4h-.1v-.4c0-.1,0-.2-.1-.2s-.1,0-.1.1h0v.4h-.1v-.4c0-.1,0-.2-.1-.2s-.1,0-.1.1h0v.4h-.1v-.5h0Z"/>
    <path d="M673.9,312.6s0,0,0,0,0,0,0,0,0,0,0,0,0,0,0,0ZM673.8,313.4v-.6h.1v.6h-.1Z"/>
    <path d="M674.1,312.9v-.2h0s.1,0,.2,0c.2,0,.3.1.3.3s-.1.3-.3.3-.2,0-.2-.1h0v.3h-.1v-.7h0ZM674.2,313.1h0c0,.1,0,.2.2.2.1,0,.2-.1.2-.2s0-.2-.2-.2-.2,0-.2.1h0v.2h0Z"/>
    <path d="M674.8,313.2s0,0,.2,0,.1,0,.1,0,0,0-.1-.1c-.1,0-.2-.1-.2-.2s0-.2.2-.2.1,0,.2,0h0c0,0,0,0-.1,0s0,0,0,0,0,0,.1.1c.1,0,.2,0,.2.2s0,.2-.2.2-.1,0-.2,0h0c0,0,0,0,0,0Z"/>
    <path d="M675.9,313.2v.2h0c0-.1,0,0-.2,0s-.2,0-.2-.3v-.4h.1v.3c0,.1,0,.2.1.2s.1,0,.2-.1c0,0,0,0,0,0v-.4h.1v.5h0Z"/>
    <path d="M676.1,312.9v-.2h0s0,0,.2,0,.2,0,.2.1h0s0,0,0,0c0,0,0,0,.1,0s.2,0,.2.3v.4h-.1v-.4c0-.1,0-.2-.1-.2s-.1,0-.1.1h0v.4h-.1v-.4c0-.1,0-.2-.1-.2s-.1,0-.1.1h0v.4h-.1v-.5h0Z"/>
  </g>
  <polygon class="st0" points="1111.4 455.3 1113.6 455.3 1113.6 455.3 1111.4 455.3"/>
  <g>
    <path class="st0" d="M1174.9,420.8l-39,144.1-150.3-40.7,39-144.1,150.3,40.7h0ZM1073.8,394.9l-4.8-1.3-23.2,85.5c-17.4-4-61.9.5-50.5,28.1,8.1,19.6,42.5,31.9,61.9,34.8,10.6,1.6,21.1,0,31.4,1.9,12.9,2.4,22.2,6,35.9,3.7,22.1-3.7,23.3-20.6,6.8-33.5-10.3-8-18.7-9.3-30.3-13.5-14.6-5.3-28.2-17.1-44.3-19.5-1-.1-1.8-.4-2.7.4l-4.9,17.9c3.4,3.4,10.7,5,7,11.2-1.6,2.7-10.4,2.3-13.1,1.6-4.7-1.3-14.9-8-7.8-12.5,1.1-.7,5.1-2.4,4.8.2-.2,1.8-2,5.3-1.5,6.7l4.3,1.9,30.8-113.8h0ZM1075.6,402l-9.9,36.5c19.8,6,38.9-8.9,58.8-4-8.3-13-25.9-15.2-38.1-23.3-4-2.6-7.1-6.3-10.8-9.2h0Z"/>
    <path d="M1073.8,394.9l-35.2,111.9c-.5-1.4,30.3-113.2,30.3-113.2l4.8,1.3h0Z"/>
    <path d="M1075.6,402c3.7,2.9,6.8,6.6,10.8,9.2,12.2,8,29.8,10.2,38.1,23.3-19.9-4.9-39.1,10-58.8,4l9.9-36.5h0Z"/>
  </g>
  <g>
    <path class="st0" d="M325.8,382.5l39,144.1-150.3,40.7-39-144.1,150.3-40.7h0ZM307.3,511.1l4.4-1.9c.5-1.4-1.3-4.9-1.5-6.7-.3-2.6,3.7-.9,4.8-.2,7.2,4.5-3,11.2-7.8,12.5-2.7.7-11.5,1.1-13.1-1.6-3.7-6.2,3.6-7.8,7-11.2l-4.9-17.9c-.9-.8-1.6-.6-2.7-.4-16.1,2.4-29.7,14.2-44.3,19.5-11.6,4.2-20,5.4-30.3,13.5-16.5,12.8-15.3,29.7,6.8,33.5,13.8,2.3,23-1.3,35.9-3.7,10.3-1.9,20.8-.3,31.4-1.9,19.4-2.9,53.8-15.2,61.9-34.8,11.4-27.6-33.2-32.2-50.5-28.1l-23.2-85.5-4.8,1.3,30.8,113.8h0ZM263.9,413.7c-12.2,8-29.8,10.2-38.1,23.3,19.9-4.9,39.1,10,58.8,4l-9.9-36.5c-3.7,2.9-6.8,6.6-10.8,9.2h0Z"/>
    <path d="M276.5,397.3l35.2,111.9c.5-1.4-30.3-113.2-30.3-113.2l-4.8,1.3h0Z"/>
    <path d="M274.7,404.5c-3.7,2.9-6.8,6.6-10.8,9.2-12.2,8-29.8,10.2-38.1,23.3,19.9-4.9,39.1,10,58.8,4l-9.9-36.5h0Z"/>
  </g>
</svg>