<?xml version="1.0" encoding="UTF-8"?>
<svg id="Layer_2" data-name="Layer 2" xmlns="http://www.w3.org/2000/svg" viewBox="0 0 500 500">
  <defs>
    <style>
      .cls-1 {
        fill: #fff;
      }
    </style>
  </defs>
  <g id="Layer_1-2" data-name="Layer 1">
    <g>
      <path class="cls-1" d="M257,0h243v499.81h-237l23.18-3.31c159.1-27.8,231.89-213.6,133.21-342.45-32.27-42.14-81.08-70.92-133.4-80.08,11.96-17.12,13.12-36.46,1.82-54.29-7.18-11.34-18.46-15.98-30.82-19.67Z"/>
      <path class="cls-1" d="M243,0c-16.01,4.4-29.16,11.91-35.49,28s-3.29,30.95,5.49,45.96c-5.21,1.45-10.8,2.07-16,3.5C90.85,106.77,25.94,200.95,37.13,311.25c10.16,100.18,98.19,181.9,197.87,188.55H0V0h243Z"/>
      <path d="M257,0c12.36,3.69,23.64,8.33,30.82,19.67,11.3,17.83,10.13,37.17-1.82,54.29,52.32,9.17,101.12,37.94,133.4,80.08,98.68,128.84,25.88,314.65-133.21,342.45l-23.18,3.31c-9.18-.45-18.89.61-28,0-99.68-6.65-187.71-88.38-197.87-188.55-11.18-110.3,53.72-204.48,159.87-233.79,5.21-1.44,10.79-2.06,16-3.5-8.78-15.01-12.09-29.21-5.49-45.96S226.99,4.4,243,0h14ZM275.28,45.69c0-14.01-11.36-25.36-25.37-25.36s-25.37,11.36-25.37,25.36,11.36,25.36,25.37,25.36,25.37-11.36,25.37-25.36ZM435.32,285.41c0-102.35-83-185.32-185.39-185.32s-185.39,82.97-185.39,185.32,83,185.32,185.39,185.32,185.39-82.97,185.39-185.32Z"/>
      <path class="cls-1" d="M435.32,285.41c0,102.35-83,185.32-185.39,185.32s-185.39-82.97-185.39-185.32S147.54,100.09,249.93,100.09s185.39,82.97,185.39,185.32ZM414.34,285.36c0-90.76-73.6-164.33-164.4-164.33s-164.4,73.57-164.4,164.33,73.6,164.33,164.4,164.33,164.4-73.57,164.4-164.33Z"/>
      <path class="cls-1" d="M275.28,45.69c0,14.01-11.36,25.36-25.37,25.36s-25.37-11.36-25.37-25.36,11.36-25.36,25.37-25.36,25.37,11.36,25.37,25.36ZM262.56,45.71c0-7-5.67-12.67-12.67-12.67s-12.67,5.67-12.67,12.67,5.67,12.67,12.67,12.67,12.67-5.67,12.67-12.67Z"/>
      <path d="M414.34,285.36c0,90.76-73.6,164.33-164.4,164.33s-164.4-73.57-164.4-164.33S159.15,121.02,249.94,121.02s164.4,73.57,164.4,164.33ZM393.88,285.42c0-79.47-64.45-143.9-143.95-143.9s-143.95,64.42-143.95,143.9,64.45,143.9,143.95,143.9,143.95-64.42,143.95-143.9Z"/>
      <ellipse cx="249.89" cy="45.71" rx="12.67" ry="12.67"/>
      <path class="cls-1" d="M393.88,285.42c0,79.47-64.45,143.9-143.95,143.9s-143.95-64.42-143.95-143.9,64.45-143.9,143.95-143.9,143.95,64.42,143.95,143.9ZM159.71,192.14c-6.56,1.49-6.59,7.9-4.76,13.33,4.08,12.12,14.27,28.87,19.91,41.07,12.18,26.36,23.54,53.14,37.19,78.78l117.69,52.29c9.23,5.05,18.72.36,15.79-10.79l-57.57-121.37-121.68-53.29c-2.16-.38-4.4-.52-6.56-.03Z"/>
      <path d="M159.71,192.14c2.15-.49,4.4-.36,6.56.03l121.68,53.29,57.57,121.37c2.94,11.15-6.56,15.84-15.79,10.79l-117.69-52.29c-13.66-25.63-25.01-52.41-37.19-78.78-5.64-12.21-15.83-28.96-19.91-41.07-1.83-5.43-1.8-11.84,4.76-13.33ZM270.67,285.38c0-11.44-9.28-20.72-20.72-20.72s-20.72,9.27-20.72,20.72,9.28,20.72,20.72,20.72,20.72-9.27,20.72-20.72Z"/>
      <path class="cls-1" d="M270.67,285.38c0,11.44-9.28,20.72-20.72,20.72s-20.72-9.27-20.72-20.72,9.28-20.72,20.72-20.72,20.72,9.27,20.72,20.72ZM247.72,277.09c-8.95,1.98-7.87,17.47,2.65,16.76,11.79-.79,9.65-19.48-2.65-16.76Z"/>
      <path d="M247.72,277.09c12.3-2.72,14.44,15.98,2.65,16.76-10.52.7-11.6-14.78-2.65-16.76Z"/>
    </g>
  </g>
</svg>